<svg width="144" height="24" viewBox="0 0 144 24" fill="none" xmlns="http://www.w3.org/2000/svg">
<g clip-path="url(#clip0)">
<path d="M20.5896 19.3849H15.9096V11.5489C15.9096 9.9169 15.588 9.5305 14.472 9.5305C13.356 9.5305 12.6888 10.2601 12.6888 11.4625L12.7104 19.3849H7.9872V11.5489C7.9872 9.9169 7.7088 9.5305 6.5712 9.5305C5.5632 9.5305 4.788 10.2601 4.788 11.4841V19.3849H0.0887985V5.8153H4.7904V6.6529H4.8336C5.52 6.1153 6.8304 5.6449 7.86 5.6449C9.276 5.6449 10.2432 6.2041 10.9728 7.1041H11.016C11.916 6.2665 13.6776 5.6449 15.1584 5.6449C18.9792 5.6449 20.6112 7.4473 20.6112 11.5489L20.5896 19.3849Z" fill="#333333"/>
<path d="M37.7136 19.428H33.0552V18.7416C32.2608 19.236 30.8664 19.6224 29.5344 19.6224C27.0216 19.6224 23.0928 18.828 23.0928 15.156C23.0928 11.1408 29.0184 10.6704 32.2392 10.6704H33.0384L33.0336 10.2624C33.0336 9.78962 32.3472 9.33842 30.9288 9.33842C29.5536 9.33842 28.4592 9.59522 27.0648 10.3272L24.2952 7.55762C26.3136 6.24722 28.4376 5.66882 31.0152 5.66882C35.4168 5.66882 37.7136 7.73042 37.7136 11.2944V19.428ZM33.0288 13.9536H32.9904C32.4312 13.9536 32.0232 13.9536 31.2936 13.9968C30.6288 14.0184 29.8992 14.0832 29.2752 14.1888C27.924 14.4456 27.7512 14.8104 27.7512 15.0888C27.7512 15.3696 28.224 15.9264 29.8344 15.9264C30.7368 15.9264 33.0336 16.0128 33.0336 14.9616V14.3832L33.0288 13.9536Z" fill="#333333"/>
<path d="M72.6192 19.428H67.9608V18.7416C67.1664 19.236 65.772 19.6224 64.44 19.6224C61.9272 19.6224 57.9984 18.828 57.9984 15.156C57.9984 11.1408 63.924 10.6704 67.1448 10.6704H67.944L67.9392 10.2624C67.9392 9.78962 67.2528 9.33842 65.8344 9.33842C64.4592 9.33842 63.3648 9.59522 61.9704 10.3272L59.2008 7.55762C61.2192 6.24722 63.3432 5.66882 65.9208 5.66882C70.3224 5.66882 72.6192 7.73042 72.6192 11.2944V19.428ZM67.9344 13.9536H67.896C67.3368 13.9536 66.9288 13.9536 66.1992 13.9968C65.5344 14.0184 64.8048 14.0832 64.1808 14.1888C62.8296 14.4456 62.6568 14.8104 62.6568 15.0888C62.6568 15.3696 63.1296 15.9264 64.74 15.9264C65.6424 15.9264 67.9392 16.0128 67.9392 14.9616V14.3832L67.9344 13.9536Z" fill="#333333"/>
<path d="M55.4136 5.83681V17.7528C55.4136 21.7032 52.752 24 47.9424 24C45.1512 24 42.8976 23.3328 40.7928 22.0248L43.5624 19.1904C44.7432 19.8984 45.9672 20.1984 47.7264 20.1984C49.68 20.1984 50.7096 19.3176 50.7096 18.2016V17.9856H50.6664C49.9152 18.3936 48.6912 18.7368 47.5536 18.7368C42.5952 18.7368 40.1904 16.2672 40.1904 12.1248C40.1904 8.47441 42.6816 5.64001 47.5536 5.64001C48.7128 5.64001 50.172 6.02641 50.688 6.45601H50.7312V5.83441H55.4136V5.83681ZM47.8992 9.55201C45.7752 9.55201 44.8728 10.5624 44.8728 12.2136C44.8728 13.8648 45.8184 14.9184 47.8992 14.9184C50.1744 14.9184 50.904 13.824 50.904 12.2136C50.9064 10.5384 49.9824 9.55201 47.8992 9.55201Z" fill="#333333"/>
<path d="M89.2248 19.3848H75.2064V16.4424L80.7456 10.9896L81.924 9.8304V9.7872H75.3552V5.88H89.1384V8.73601L83.5776 14.1048L82.2144 15.4368V15.48H89.2248V19.3848Z" fill="#333333"/>
<path d="M94.2576 5.36405C92.82 5.36405 91.8312 4.31285 91.8312 2.98085C91.8312 1.62965 92.82 0.57605 94.2576 0.57605C95.7168 0.57605 96.7056 1.62725 96.7056 2.98085C96.7056 4.31285 95.6952 5.36405 94.2576 5.36405ZM96.5976 19.3848H91.9176V5.85845H96.5976V19.3848Z" fill="#333333"/>
<path d="M114.42 19.3849H109.74V11.4841C109.74 10.1521 109.116 9.5305 107.314 9.5305C105.511 9.5305 104.522 10.3033 104.522 11.5489V19.3849H99.8424V5.8153H104.522V6.6745H104.566C105.66 6.0097 107.122 5.6665 108.43 5.6665C112.594 5.6665 114.42 7.8553 114.42 11.0977V19.3849Z" fill="#333333"/>
<path d="M131.988 14.1025H121.69C121.69 14.1961 121.874 14.5321 121.874 14.5321C122.39 15.4129 123.42 15.9481 124.817 15.9481C126.254 15.9481 127.07 15.6481 127.951 14.9185L130.656 17.6017C129.046 18.9769 127.265 19.5985 124.709 19.5985C119.405 19.5985 116.657 16.5505 116.657 12.7057C116.657 8.69046 119.534 5.64246 124.452 5.64246C129.562 5.64246 132.137 8.79846 132.137 12.7057C132.139 13.1161 132.118 13.4593 131.988 14.1025ZM127.183 10.8385C127.157 10.7257 127.008 10.4305 127.008 10.4305C126.622 9.70086 125.592 9.18486 124.498 9.18486C123.403 9.18486 122.328 9.54966 121.879 10.4305C121.879 10.4305 121.716 10.7377 121.68 10.8385H127.183Z" fill="#333333"/>
<path d="M144 9.48727H142.538C140.155 9.48727 139.234 10.4305 139.234 12.5137V19.3849H134.554V5.85847H139.234V7.33927C139.877 6.28807 141.144 5.68567 142.97 5.68567H144V9.48727Z" fill="#333333"/>
</g>
<defs>
<clipPath id="clip0">
<path d="M0 0H144V24H0V0Z" fill="white"/>
</clipPath>
</defs>
</svg>
