<svg width="24" height="24" viewBox="0 0 24 24" fill="none" xmlns="http://www.w3.org/2000/svg">
<path d="M22.5896 19.3848H17.9096V11.5488C17.9096 9.91677 17.588 9.53037 16.472 9.53037C15.356 9.53037 14.6888 10.26 14.6888 11.4624L14.7104 19.3848H9.98721V11.5488C9.98721 9.91677 9.70881 9.53037 8.57121 9.53037C7.56321 9.53037 6.78801 10.26 6.78801 11.484V19.3848H2.08881V5.81518H6.79041V6.65277H6.83361C7.52001 6.11518 8.83041 5.64478 9.86001 5.64478C11.276 5.64478 12.2432 6.20398 12.9728 7.10398H13.016C13.916 6.26638 15.6776 5.64478 17.1584 5.64478C20.9792 5.64478 22.6112 7.44717 22.6112 11.5488L22.5896 19.3848Z" fill="#333333"/>
</svg>
