<?xml version="1.0" standalone="no"?>
<!DOCTYPE svg PUBLIC "-//W3C//DTD SVG 20010904//EN"
 "http://www.w3.org/TR/2001/REC-SVG-20010904/DTD/svg10.dtd">
<svg version="1.0" xmlns="http://www.w3.org/2000/svg"
 width="700.000000pt" height="700.000000pt" viewBox="0 0 700.000000 700.000000"
 preserveAspectRatio="xMidYMid meet">
<metadata>
Created by potrace 1.11, written by Peter Selinger 2001-2013
</metadata>
<g transform="translate(0.000000,700.000000) scale(0.100000,-0.100000)"
fill="#000000" stroke="none">
<path d="M2770 5353 c-239 -25 -544 -131 -725 -252 l-60 -40 -3 125 -3 124
-684 0 -685 0 0 -1985 0 -1985 685 0 684 0 3 1213 c3 1118 5 1217 21 1272 57
195 175 320 347 368 162 46 367 20 448 -56 35 -32 71 -110 90 -191 14 -63 16
-217 19 -1338 l4 -1268 689 0 690 0 0 1200 c0 1059 2 1210 16 1278 29 142 96
248 197 313 93 60 171 81 307 82 160 1 228 -19 296 -87 59 -60 88 -138 104
-281 6 -54 10 -568 10 -1297 l0 -1208 683 0 684 0 6 662 c10 952 8 1721 -3
1888 -24 329 -78 556 -185 776 -175 360 -478 571 -939 654 -176 32 -432 46
-589 32 -390 -35 -793 -183 -1034 -379 l-53 -43 -77 81 c-102 106 -186 169
-308 229 -183 91 -431 135 -635 113z"/>
</g>
</svg>
