<svg width="24" height="24" viewBox="0 0 24 24" fill="none" xmlns="http://www.w3.org/2000/svg">
<path fill-rule="evenodd" clip-rule="evenodd" d="M12.2712 4.34151C12.6349 4.75715 12.5927 5.38891 12.1771 5.75259L6.18006 11H15C15.5523 11 16 11.4477 16 12C16 12.5523 15.5523 13 15 13H6.18003L12.1771 18.2474C12.5927 18.6111 12.6348 19.2429 12.2712 19.6585C11.9075 20.0742 11.2757 20.1163 10.8601 19.7526L2 12L10.8601 4.24744C11.2757 3.88375 11.9075 3.92587 12.2712 4.34151ZM19 13C19.5523 13 20 12.5523 20 12C20 11.4477 19.5523 11 19 11C18.4477 11 18 11.4477 18 12C18 12.5523 18.4477 13 19 13Z" fill="currentColor" />
</svg>
