<svg width="24" height="24" viewBox="0 0 24 24" fill="none" xmlns="http://www.w3.org/2000/svg">
<path fill-rule="evenodd" clip-rule="evenodd" d="M18.5585 4H5.44152L3.16227 10.8377L4.58163 10.3646C5.04284 10.2109 5.52338 10.144 6 10.1623V7C6 6.44772 6.44771 6 7 6C7.55228 6 8 6.44772 8 7V10.7639L10.4721 12H11V7C11 6.44772 11.4477 6 12 6C12.5523 6 13 6.44772 13 7V12H13.5279L16 10.7639V7C16 6.44772 16.4477 6 17 6C17.5523 6 18 6.44772 18 7V10.1623C18.4766 10.144 18.9572 10.2109 19.4184 10.3646L20.8377 10.8377L18.5585 4ZM17 12.5L17.259 12.3705C17.7335 12.1333 18.2827 12.0942 18.7859 12.262L22.1026 13.3675C22.8844 13.6281 23.6281 12.8844 23.3675 12.1026L20.4558 3.36754C20.1836 2.55086 19.4193 2 18.5585 2H5.44152C4.58065 2 3.81638 2.55086 3.54415 3.36754L0.632453 12.1026C0.371867 12.8844 1.11561 13.6281 1.89736 13.3675L5.21408 12.262C5.7173 12.0942 6.26653 12.1333 6.74096 12.3705L7 12.5V14V19H5V14C5 13.4477 4.55228 13 4 13C3.44771 13 3 13.4477 3 14V21C3 22.6569 4.34314 24 6 24H18C19.6569 24 21 22.6569 21 21V14C21 13.4477 20.5523 13 20 13C19.4477 13 19 13.4477 19 14V19H17V14V12.5ZM17 21H15H9H7H5C5 21.5523 5.44771 22 6 22H18C18.5523 22 19 21.5523 19 21H17ZM15 19V14H13.5279H10.4721H9V19H15Z" fill="currentColor"/>
</svg>
