<svg width="24" height="24" viewBox="0 0 24 24" fill="none" xmlns="http://www.w3.org/2000/svg">
<path fill-rule="evenodd" clip-rule="evenodd" d="M19.0001 6C19.5523 6 20.0001 5.55228 20.0001 5C20.0001 4.44772 19.5523 4 19.0001 4C18.4478 4 18.0001 4.44772 18.0001 5C18.0001 5.55228 18.4478 6 19.0001 6ZM17.8437 8.53688C18.1402 8.07094 18.0029 7.45285 17.537 7.15634C17.071 6.85983 16.4529 6.99719 16.1564 7.46313L10.9326 16.2434L7.80006 11.4C7.46869 10.9582 6.84188 10.8686 6.40006 11.2C5.95823 11.5314 5.86869 12.1582 6.20006 12.6L10.2001 18.6C10.3971 18.8626 10.7104 19.0119 11.0385 18.9993C11.3665 18.9867 11.6675 18.8139 11.8437 18.5369L17.8437 8.53688Z" fill="currentColor"/>
</svg>
