<svg width="24" height="24" viewBox="0 0 24 24" fill="none" xmlns="http://www.w3.org/2000/svg">
<path fill-rule="evenodd" clip-rule="evenodd" d="M4.92893 17.6569C4.53841 18.0474 4.53841 18.6806 4.92893 19.0711C5.31946 19.4616 5.95262 19.4616 6.34315 19.0711L12 13.4143L17.6569 19.0711C18.0474 19.4616 18.6805 19.4616 19.0711 19.0711C19.4616 18.6806 19.4616 18.0474 19.0711 17.6569L13.4142 12L19.0711 6.34319C19.4616 5.95267 19.4616 5.3195 19.0711 4.92898C18.6805 4.53845 18.0474 4.53845 17.6569 4.92898L12 10.5858L6.34315 4.92898C5.95262 4.53845 5.31946 4.53845 4.92893 4.92898C4.53841 5.3195 4.53841 5.95267 4.92893 6.34319L10.5858 12L4.92893 17.6569ZM12.7071 7.46446C12.3166 7.85498 11.6834 7.85498 11.2929 7.46446C10.9024 7.07394 10.9024 6.44077 11.2929 6.05025C11.6834 5.65972 12.3166 5.65972 12.7071 6.05025C13.0976 6.44077 13.0976 7.07394 12.7071 7.46446ZM16.5355 12.7071C16.9261 13.0977 17.5592 13.0977 17.9498 12.7071C18.3403 12.3166 18.3403 11.6834 17.9498 11.2929C17.5592 10.9024 16.9261 10.9024 16.5355 11.2929C16.145 11.6834 16.145 12.3166 16.5355 12.7071ZM12.7071 17.9498C12.3166 18.3403 11.6834 18.3403 11.2929 17.9498C10.9024 17.5593 10.9024 16.9261 11.2929 16.5356C11.6834 16.1451 12.3166 16.1451 12.7071 16.5356C13.0976 16.9261 13.0976 17.5593 12.7071 17.9498ZM6.05025 12.7071C6.44077 13.0977 7.07394 13.0977 7.46446 12.7071C7.85499 12.3166 7.85499 11.6834 7.46446 11.2929C7.07394 10.9024 6.44077 10.9024 6.05025 11.2929C5.65972 11.6834 5.65972 12.3166 6.05025 12.7071Z" fill="currentColor"/>
</svg>
