<svg width="24" height="24" viewBox="0 0 24 24" fill="none" xmlns="http://www.w3.org/2000/svg">
<path fill-rule="evenodd" clip-rule="evenodd" d="M7.75736 14.8285C7.36684 15.219 7.36684 15.8522 7.75736 16.2427C8.14788 16.6332 8.78105 16.6332 9.17157 16.2427L12 13.4143L14.8284 16.2427C15.219 16.6332 15.8521 16.6332 16.2426 16.2427C16.6332 15.8522 16.6332 15.219 16.2426 14.8285L13.4142 12.0001L16.2426 9.17162C16.6332 8.7811 16.6332 8.14793 16.2426 7.75741C15.8521 7.36689 15.219 7.36689 14.8284 7.75741L12 10.5858L9.17157 7.75741C8.78105 7.36689 8.14788 7.36689 7.75736 7.75741C7.36684 8.14794 7.36683 8.7811 7.75736 9.17162L10.5858 12.0001L7.75736 14.8285Z" fill="#333333"/>
</svg>
