<svg width="24" height="24" viewBox="0 0 24 24" fill="none" xmlns="http://www.w3.org/2000/svg">
<path fill-rule="evenodd" clip-rule="evenodd" d="M16 8C16 10.2091 14.2091 12 12 12C10.8537 12 9.82009 11.5178 9.0908 10.7453C9.59866 9.03042 11.3796 6.23617 15.473 6.0141C15.8083 6.59925 16 7.27724 16 8ZM8.01094 8.29805C8.99505 6.6443 10.727 4.94211 13.4824 4.28368C13.024 4.10066 12.5237 4 12 4C9.79086 4 8 5.79086 8 8C8 8.10026 8.00369 8.19965 8.01094 8.29805ZM18 8C18 11.3137 15.3137 14 12 14C8.68629 14 6 11.3137 6 8C6 4.68629 8.68629 2 12 2C15.3137 2 18 4.68629 18 8ZM16.849 16.4919L13.2649 17.6866C12.4438 17.9603 11.5562 17.9603 10.7351 17.6866L6.93937 16.4214C6.43616 16.2536 5.88693 16.2927 5.41249 16.5299L5.10557 16.6833C4.428 17.0221 4 17.7146 4 18.4722V22.0001H8.99997V22C13.9679 22 16.1813 18.6521 16.849 16.4919ZM15.3257 22.0001C17.3882 20.4248 18.4691 18.2406 18.8741 16.6732L18.8944 16.6833C19.572 17.0221 20 17.7146 20 18.4722V22.0001H15.3257ZM2 18.4722C2 16.9571 2.85601 15.572 4.21115 14.8945L4.51806 14.741C5.46693 14.2666 6.5654 14.1885 7.57183 14.524L11.3675 15.7892C11.7781 15.9261 12.2219 15.9261 12.6325 15.7892L16.4282 14.524C17.4346 14.1885 18.5331 14.2666 19.4819 14.741L19.7889 14.8945C21.144 15.572 22 16.9571 22 18.4722V24.0001H2V18.4722Z" fill="currentColor"/>
</svg>
