<svg width="24" height="24" viewBox="0 0 24 24" fill="none" xmlns="http://www.w3.org/2000/svg">
<path fill-rule="evenodd" clip-rule="evenodd" d="M5 3C4.44772 3 4 3.44772 4 4C4 4.55228 4.44772 5 5 5H19C19.5523 5 20 4.55228 20 4C20 3.44772 19.5523 3 19 3H5ZM20 8.16124L14.4988 12.5622C13.0379 13.7309 10.9621 13.7309 9.50122 12.5622L4 8.16124V12.1182C6.12921 12.5314 8.82857 13.2999 9.15447 18H20V8.16124ZM4 18V14.1281C5.39032 14.373 6.89197 14.9127 7.14878 18H4ZM3.6247 5.29974C2.96993 4.77593 2 5.24211 2 6.08061V18C2 19.1046 2.89543 20 4 20H20C21.1046 20 22 19.1046 22 18V6.08061C22 5.24211 21.0301 4.77593 20.3753 5.29974L13.2494 11.0005C12.519 11.5848 11.481 11.5848 10.7506 11.0005L3.6247 5.29974Z" fill="currentColor"/>
</svg>
