<svg width="24" height="24" viewBox="0 0 24 24" fill="none" xmlns="http://www.w3.org/2000/svg">
<path fill-rule="evenodd" clip-rule="evenodd" d="M22 12C22 17.5228 17.5228 22 12 22C6.47715 22 2 17.5228 2 12C2 6.47715 6.47715 2 12 2C17.5228 2 22 6.47715 22 12ZM24 12C24 18.6274 18.6274 24 12 24C5.37258 24 0 18.6274 0 12C0 5.37258 5.37258 0 12 0C18.6274 0 24 5.37258 24 12ZM12.9566 10.2095H15L14.7661 12.5048H12.9566V19H10.2749V12.5048H9V10.2095H10.2749V8.72459C10.2749 7.6614 10.7766 6 12.9812 6L14.9671 6.0078V8.23538H13.5251C13.2902 8.23538 12.9566 8.35351 12.9566 8.86022V10.2095Z" fill="currentColor"/>
</svg>
