<svg width="24" height="24" viewBox="0 0 24 24" fill="none" xmlns="http://www.w3.org/2000/svg">
<path d="M20.0136 11.8356C19.5534 14.5972 17.9178 17.4366 16.1068 19.6098C15.2075 20.689 14.2916 21.5714 13.5025 22.174C13.1073 22.4758 12.7609 22.6943 12.4786 22.8331C12.1782 22.9808 12.0274 23 12 23C11.9726 23 11.8218 22.9808 11.5214 22.8331C11.2391 22.6943 10.8928 22.4758 10.4975 22.174C9.70843 21.5714 8.79255 20.689 7.89324 19.6098C6.08225 17.4366 4.44667 14.5972 3.9864 11.8356C3.08097 6.40305 6.65994 2 12 2C17.3401 2 20.919 6.40304 20.0136 11.8356Z" stroke="currentColor" stroke-width="2"/>
<circle cx="12" cy="10" r="3" stroke="currentColor" stroke-width="2"/>
</svg>
