<svg width="24" height="24" viewBox="0 0 24 24" fill="none" xmlns="http://www.w3.org/2000/svg">
<path fill-rule="evenodd" clip-rule="evenodd" d="M19 22H5L5 2L11 2V6C11 8.20914 12.7909 10 15 10H19V22ZM3 2C3 0.89543 3.89543 0 5 0H11C12.1046 0 13 0.895431 13 2V3V6C13 7.10457 13.8954 8 15 8H18H19C20.1046 8 21 8.89543 21 10V22C21 23.1046 20.1046 24 19 24H5C3.89543 24 3 23.1046 3 22V2ZM18 8C17.4477 8 17 7.55228 17 7C17 6.44772 17.4477 6 18 6C18.5523 6 19 6.44772 19 7C19 7.55228 18.5523 8 18 8ZM13 3C13 2.44772 13.4477 2 14 2C14.5523 2 15 2.44772 15 3C15 3.55228 14.5523 4 14 4C13.4477 4 13 3.55228 13 3ZM17 5C17 5.55228 16.5523 6 16 6C15.4477 6 15 5.55228 15 5C15 4.44772 15.4477 4 16 4C16.5523 4 17 4.44772 17 5Z" fill="currentColor"/>
</svg>
