<svg width="24" height="24" viewBox="0 0 24 24" fill="none" xmlns="http://www.w3.org/2000/svg">
<mask id="path-2-inside-1" fill="white">
<path d="M6.07573 8.06638C6.1855 7.9566 6.31933 7.8739 6.4666 7.8248L21.0919 2.94971L16.2168 17.575C16.1677 17.7223 16.085 17.8561 15.9752 17.9659L13.118 20.8231C12.575 21.3661 11.6481 21.1199 11.4461 20.3791L9.77818 14.2634L3.66247 12.5955C2.9217 12.3935 2.67555 11.4666 3.21848 10.9236L6.07573 8.06638Z"/>
</mask>
<path d="M10.4853 14.9705L21.799 3.65681L20.3848 2.2426L9.07108 13.5563L10.4853 14.9705ZM21.0919 2.94971L22.9893 3.58216L24.2542 -0.212571L20.4594 1.05234L21.0919 2.94971ZM9.77818 14.2634L11.7077 13.7372L11.407 12.6346L10.3044 12.3339L9.77818 14.2634ZM3.21848 10.9236L1.80427 9.50941L3.21848 10.9236ZM3.66247 12.5955L4.18871 10.666L3.66247 12.5955ZM11.4461 20.3791L13.3756 19.8529L11.4461 20.3791ZM6.07573 8.06638L7.48994 9.48059L6.07573 8.06638ZM6.4666 7.8248L7.09906 9.72217L6.4666 7.8248ZM14.561 16.5517L11.7038 19.4089L14.5322 22.2373L17.3894 19.3801L14.561 16.5517ZM4.63269 12.3378L7.48994 9.48059L4.66151 6.65217L1.80427 9.50941L4.63269 12.3378ZM7.09906 9.72217L21.7243 4.84707L20.4594 1.05234L5.83415 5.92744L7.09906 9.72217ZM19.1945 2.31725L14.3194 16.9425L18.1142 18.2075L22.9893 3.58216L19.1945 2.31725ZM13.3756 19.8529L11.7077 13.7372L7.84866 14.7896L9.51658 20.9054L13.3756 19.8529ZM10.3044 12.3339L4.18871 10.666L3.13624 14.525L9.25195 16.1929L10.3044 12.3339ZM1.80427 9.50941C0.175469 11.1382 0.913934 13.9189 3.13624 14.525L4.18871 10.666C4.92947 10.868 5.17563 11.7949 4.63269 12.3378L1.80427 9.50941ZM11.7038 19.4089C12.2467 18.866 13.1736 19.1121 13.3756 19.8529L9.51658 20.9054C10.1227 23.1277 12.9034 23.8661 14.5322 22.2373L11.7038 19.4089ZM17.3894 19.3801C17.7188 19.0508 17.9669 18.6493 18.1142 18.2075L14.3194 16.9425C14.3685 16.7953 14.4512 16.6614 14.561 16.5517L17.3894 19.3801ZM7.48994 9.48059C7.38016 9.59037 7.24634 9.67308 7.09906 9.72217L5.83415 5.92744C5.39231 6.07471 4.99084 6.32284 4.66151 6.65217L7.48994 9.48059Z" fill="currentColor" mask="url(#path-2-inside-1)"/>
</svg>
