<svg width="24" height="24" viewBox="0 0 24 24" fill="none" xmlns="http://www.w3.org/2000/svg">
<path fill-rule="evenodd" clip-rule="evenodd" d="M21.2132 7.07107C21.2132 7.07107 19.799 8.48528 17.6777 6.36396C15.5564 4.24264 16.9706 2.82843 16.9706 2.82843L14.1422 0L1.54972e-05 14.1421L2.82844 16.9706C2.82844 16.9706 4.59621 15.9099 6.36398 17.6777C8.13174 19.4454 7.07108 21.2132 7.07108 21.2132L9.89951 24.0416L24.0416 9.89949L21.2132 7.07107ZM9.36936 20.3291L14.8493 14.8492L9.1924 9.19239L3.7125 14.6723C3.60308 14.6816 3.49749 14.6943 3.39603 14.7097L2.82844 14.1421L14.1422 2.82843L14.5908 3.27705C14.5747 3.35498 14.5605 3.43527 14.5487 3.51786C14.353 4.88769 14.8578 6.37246 16.2635 7.77817C17.6692 9.18389 19.154 9.6886 20.5238 9.49291C20.6064 9.48111 20.6867 9.46698 20.7646 9.45088L21.2132 9.89949L9.89951 21.2132L9.33192 20.6456C9.34732 20.5442 9.36005 20.4386 9.36936 20.3291ZM7.77819 16.2635L9.1924 17.6777L12.0208 14.8492L9.1924 12.0208L6.36398 14.8492L7.77819 16.2635ZM14.1422 7.07107L12.7279 8.48528L11.3137 7.07107L12.7279 5.65685L14.1422 7.07107ZM14.8493 10.6066L16.2635 9.19239L14.8493 7.77817L13.435 9.19239L14.8493 10.6066ZM18.3848 11.3137L16.9706 12.7279L15.5564 11.3137L16.9706 9.89949L18.3848 11.3137Z" fill="currentColor"/>
</svg>
