<svg width="24" height="24" viewBox="0 0 24 24" fill="none" xmlns="http://www.w3.org/2000/svg">
<path fill-rule="evenodd" clip-rule="evenodd" d="M12 22C17.5228 22 22 17.5228 22 12C22 6.47715 17.5228 2 12 2C6.47715 2 2 6.47715 2 12C2 17.5228 6.47715 22 12 22ZM12 24C18.6274 24 24 18.6274 24 12C24 5.37258 18.6274 0 12 0C5.37258 0 0 5.37258 0 12C0 18.6274 5.37258 24 12 24Z" fill="currentColor"/>
<path fill-rule="evenodd" clip-rule="evenodd" d="M18.4804 3.73645C18.4804 3.73652 18.4494 3.75118 18.4076 3.79292L19.8219 5.20713C19.4868 5.54214 19.0557 5.67109 18.7392 5.73262C18.4033 5.79793 18.0346 5.81616 17.6891 5.82027C17.4074 5.82362 17.1025 5.81748 16.807 5.81152C16.7374 5.81012 16.6684 5.80873 16.6002 5.80747C16.2319 5.80069 15.8744 5.79737 15.5314 5.81166C14.8123 5.84162 14.3099 5.94667 14.0061 6.12984C13.7997 6.25431 13.6147 6.44572 13.6147 7.00003C13.6147 7.32258 13.6433 7.51629 13.6693 7.62608C13.706 7.61897 13.7511 7.60891 13.8058 7.59469C13.8782 7.57585 13.9542 7.55373 14.0429 7.52752C14.0524 7.5247 14.0622 7.52181 14.0721 7.51887C14.1493 7.49601 14.2382 7.46968 14.3251 7.4461C14.5041 7.3975 14.7843 7.3279 15.078 7.33638C15.408 7.34591 15.8507 7.46045 16.1686 7.87363C16.4454 8.23346 16.5 8.66301 16.5 9.00003C16.5 9.23923 16.4873 9.48289 16.4762 9.69534C16.4742 9.73358 16.4722 9.7708 16.4704 9.80681C16.4578 10.0576 16.4506 10.2667 16.4598 10.4595C16.4776 10.8328 16.5534 11.0526 16.7004 11.2261C16.8596 11.4139 17.216 11.6799 18.0642 11.8933C18.9121 12.1066 20.1638 12.2451 22 12.2451V14.2451C20.0861 14.2451 18.6503 14.103 17.5763 13.8329C16.5028 13.5628 15.7029 13.1425 15.1746 12.5191C14.6341 11.8813 14.4911 11.1648 14.4621 10.5547C14.4478 10.2557 14.4601 9.96127 14.4729 9.7065C14.4751 9.66289 14.4773 9.6206 14.4794 9.57942C14.4811 9.54631 14.4828 9.51392 14.4844 9.48214C14.4284 9.49821 14.3692 9.51469 14.3089 9.53036C13.9636 9.62012 13.165 9.81307 12.4802 9.31858C11.787 8.8181 11.6147 7.92216 11.6147 7.00003C11.6147 5.80433 12.1173 4.93325 12.9734 4.41708C13.7321 3.95964 14.6672 3.84593 15.4481 3.81339C15.8551 3.79644 16.2633 3.80093 16.6371 3.80781C16.7141 3.80923 16.7892 3.81074 16.8624 3.8122C17.155 3.81806 17.4188 3.82334 17.6653 3.82041C17.9761 3.81671 18.2012 3.79978 18.3575 3.76939C18.4469 3.75199 18.4803 3.73638 18.4804 3.73645ZM14.495 8.91696C14.4951 8.91686 14.4956 8.91918 14.4963 8.92425C14.4953 8.9196 14.4949 8.91707 14.495 8.91696Z" fill="currentColor"/>
<path fill-rule="evenodd" clip-rule="evenodd" d="M20.9184 15.0552C21.1472 15.0695 21.3154 15.08 21.4502 15.08V17.08C21.2543 17.08 20.9803 17.0631 20.7007 17.0459C20.5752 17.0381 20.4485 17.0303 20.3273 17.0239C19.8968 17.0013 19.4235 16.9877 18.9464 17.0158C17.9502 17.0744 17.1397 17.3047 16.6573 17.7871C16.2777 18.1666 16.1115 18.3655 16.0342 18.498C15.995 18.5652 15.9964 18.5751 16.0028 18.6186C16.0031 18.6207 16.0034 18.6229 16.0037 18.6251C16.0219 18.7514 16.0915 18.9614 16.2935 19.4165C16.3533 19.5513 16.4247 19.7079 16.5052 19.8843C16.6689 20.2429 16.8697 20.6831 17.0852 21.1864L15.2466 21.9735C15.0383 21.4869 14.8612 21.0992 14.7041 20.7552C14.6193 20.5696 14.5404 20.3967 14.4654 20.2278C14.2722 19.7923 14.0868 19.3461 14.0241 18.9098C13.9503 18.3965 14.047 17.9353 14.3067 17.4901C14.5303 17.107 14.8726 16.7434 15.2431 16.3729C16.2606 15.3553 17.7002 15.0856 18.8289 15.0192C19.4143 14.9848 19.9723 15.0025 20.4324 15.0267C20.6204 15.0366 20.7804 15.0466 20.9184 15.0552Z" fill="currentColor"/>
<path fill-rule="evenodd" clip-rule="evenodd" d="M6.45612 5.05198C5.92206 4.89256 5.29496 4.69504 4.62858 4.42849L5.37136 2.57153C5.95498 2.80498 6.51538 2.98246 7.02819 3.13554C7.14309 3.16984 7.25901 3.20384 7.37409 3.2376C7.74817 3.34732 8.11322 3.4544 8.40421 3.56022C8.59938 3.63119 8.81022 3.71833 9.00016 3.83064C9.17873 3.93622 9.43489 4.11914 9.60275 4.42434C9.8 4.78299 9.80304 5.17457 9.67709 5.51499C9.56868 5.80799 9.37615 6.03804 9.20708 6.20712C8.60788 6.80631 7.87312 7.12743 7.36459 7.34968C7.31353 7.372 7.26475 7.39332 7.21861 7.41382C6.61771 7.68089 6.46266 7.81069 6.3944 7.94722C6.36837 7.99928 6.34119 8.0574 6.31182 8.12022C6.13049 8.50805 5.86538 9.07505 5.26871 9.50124C4.62464 9.96129 3.66424 10.2364 2.16437 10.4864L1.83557 8.51362C3.3357 8.26359 3.8753 8.03873 4.10623 7.87378C4.25378 7.76839 4.28437 7.70594 4.45847 7.35058C4.49874 7.26838 4.54669 7.1705 4.60554 7.0528C5.03391 6.19605 5.8691 5.82493 6.39403 5.59167L6.40633 5.5862C6.44229 5.57022 6.4776 5.55456 6.51229 5.53919C6.74532 5.43589 6.94993 5.34519 7.1325 5.25157C7.04869 5.22667 6.95992 5.20061 6.86567 5.17294C6.7394 5.13587 6.6033 5.09591 6.45612 5.05198ZM7.99416 5.55993C7.994 5.55997 7.99139 5.55836 7.98685 5.555C7.99205 5.55821 7.99432 5.55989 7.99416 5.55993ZM7.84085 4.74019C7.84134 4.73949 7.8416 4.73914 7.84161 4.73914L7.84085 4.74019Z" fill="currentColor"/>
<path fill-rule="evenodd" clip-rule="evenodd" d="M4.29137 13.0004C3.43632 13.0111 2.34985 13.2559 1.60046 13.4918L1 11.5841C1.83917 11.32 3.13555 11.0148 4.26619 11.0005C4.81773 10.9936 5.45532 11.0525 5.99099 11.3196C6.27306 11.4603 6.55291 11.672 6.75981 11.9841C6.97049 12.3019 7.06592 12.6646 7.06592 13.038C7.06592 14.1482 6.92273 14.7417 6.77744 15.2502C6.7681 15.2829 6.75895 15.3146 6.75002 15.3455C6.64204 15.7198 6.56592 15.9837 6.56592 16.538C6.56592 17.1203 6.77062 17.9904 7.0829 18.9897C7.27627 19.6085 7.48231 20.1936 7.67554 20.7423C7.79553 21.083 7.91058 21.4097 8.0146 21.7217L6.11723 22.3542C6.03479 22.1069 5.92959 21.8074 5.81415 21.4789C5.60967 20.8969 5.37307 20.2235 5.17394 19.5862C4.86121 18.5855 4.56592 17.4557 4.56592 16.538C4.56592 15.6997 4.70539 15.2169 4.82772 14.7934C4.83672 14.7622 4.84564 14.7314 4.85439 14.7007C4.95684 14.3422 5.06131 13.9452 5.06577 13.0948C4.94192 13.0446 4.69364 12.9953 4.29137 13.0004Z" fill="currentColor"/>
</svg>
